{
    "asset" : {
        "generator" : "Khronos glTF Blender I/O v3.4.50",
        "version" : "2.0"
    },
    "scene" : 0,
    "scenes" : [
        {
            "name" : "Scene",
            "nodes" : [
                0
            ]
        }
    ],
    "nodes" : [
        {
            "mesh" : 0,
            "name" : "cargo_container_grp",
            "scale" : [
                100,
                100,
                100
            ]
        }
    ],
    "materials" : [
        {
            "doubleSided" : true,
            "name" : "cargo_container_mat.001",
            "normalTexture" : {
                "index" : 0
            },
            "pbrMetallicRoughness" : {
                "baseColorTexture" : {
                    "index" : 1
                },
                "metallicRoughnessTexture" : {
                    "index" : 2
                }
            }
        }
    ],
    "meshes" : [
        {
            "name" : "Cube.001",
            "primitives" : [
                {
                    "attributes" : {
                        "POSITION" : 0,
                        "TEXCOORD_0" : 1,
                        "NORMAL" : 2
                    },
                    "indices" : 3,
                    "material" : 0
                }
            ]
        }
    ],
    "textures" : [
        {
            "sampler" : 0,
            "source" : 0
        },
        {
            "sampler" : 0,
            "source" : 1
        },
        {
            "sampler" : 0,
            "source" : 2
        }
    ],
    "images" : [
        {
            "mimeType" : "image/png",
            "name" : "cargo_container_mat_norm",
            "uri" : "cargo_container_mat_norm.png"
        },
        {
            "mimeType" : "image/png",
            "name" : "cargo_container_mat_bcolor",
            "uri" : "cargo_container_mat_bcolor.png"
        },
        {
            "mimeType" : "image/png",
            "name" : "cargo_container_mat_metal-cargo_container_mat_rough",
            "uri" : "cargo_container_mat_metal-cargo_container_mat_rough.png"
        }
    ],
    "accessors" : [
        {
            "bufferView" : 0,
            "componentType" : 5126,
            "count" : 17449,
            "max" : [
                3.2580482959747314,
                2.816917657852173,
                1.3937009572982788
            ],
            "min" : [
                -3.2580482959747314,
                0,
                -1.3937009572982788
            ],
            "type" : "VEC3"
        },
        {
            "bufferView" : 1,
            "componentType" : 5126,
            "count" : 17449,
            "type" : "VEC2"
        },
        {
            "bufferView" : 2,
            "componentType" : 5126,
            "count" : 17449,
            "type" : "VEC3"
        },
        {
            "bufferView" : 3,
            "componentType" : 5123,
            "count" : 52344,
            "type" : "SCALAR"
        }
    ],
    "bufferViews" : [
        {
            "buffer" : 0,
            "byteLength" : 209388,
            "byteOffset" : 0,
            "target" : 34962
        },
        {
            "buffer" : 0,
            "byteLength" : 139592,
            "byteOffset" : 209388,
            "target" : 34962
        },
        {
            "buffer" : 0,
            "byteLength" : 209388,
            "byteOffset" : 348980,
            "target" : 34962
        },
        {
            "buffer" : 0,
            "byteLength" : 104688,
            "byteOffset" : 558368,
            "target" : 34963
        }
    ],
    "samplers" : [
        {
            "magFilter" : 9729,
            "minFilter" : 9987
        }
    ],
    "buffers" : [
        {
            "byteLength" : 663056,
            "uri" : "Cargo Container.bin"
        }
    ]
}
